<?xml version="1.0" standalone="no"?>
<!DOCTYPE svg PUBLIC "-//W3C//DTD SVG 20010904//EN"
 "http://www.w3.org/TR/2001/REC-SVG-20010904/DTD/svg10.dtd">
<svg version="1.0" xmlns="http://www.w3.org/2000/svg"
 width="500.000000pt" height="500.000000pt" viewBox="0 0 500.000000 500.000000"
 preserveAspectRatio="xMidYMid meet">
<metadata>
Created by potrace 1.14, written by Peter Selinger 2001-2017
</metadata>
<g transform="translate(0.000000,500.000000) scale(0.100000,-0.100000)"
fill="#000000" stroke="none">
<path d="M1101 3759 c-82 -15 -128 -58 -164 -156 -31 -84 -186 -518 -342 -958
-29 -82 -79 -222 -110 -310 -31 -88 -79 -221 -105 -295 -26 -74 -95 -268 -153
-430 -139 -390 -147 -414 -147 -451 0 -130 121 -235 262 -228 75 4 126 27 179
80 72 70 47 9 364 904 436 1230 410 1160 439 1208 118 202 416 277 508 129 38
-62 30 -140 -32 -312 -28 -80 -73 -206 -100 -280 -26 -74 -111 -315 -189 -535
-181 -509 -185 -524 -183 -688 4 -311 216 -508 545 -507 102 0 194 19 279 58
l66 30 26 -25 c61 -56 166 -78 243 -50 98 36 168 121 221 267 30 81 274 789
350 1012 21 60 39 108 42 108 3 0 15 -15 27 -34 58 -90 225 -118 376 -62 111
40 149 24 161 -69 8 -61 -10 -131 -91 -355 -41 -112 -81 -235 -89 -273 -74
-351 157 -607 547 -605 218 2 408 86 577 257 95 97 165 198 237 346 126 255
139 373 51 433 -44 30 -86 41 -139 37 -116 -10 -174 -64 -237 -220 -46 -114
-118 -237 -177 -302 -111 -122 -297 -174 -336 -95 -29 57 -11 125 138 507 71
182 79 215 79 330 -1 133 -20 193 -96 291 l-50 66 40 34 c75 64 228 292 382
569 155 278 154 275 154 366 1 67 -2 80 -27 116 -73 105 -235 122 -358 38 -40
-29 -80 -80 -129 -170 -58 -104 -188 -337 -205 -367 -5 -10 -39 -68 -74 -130
-36 -62 -84 -144 -108 -182 l-44 -68 -52 7 c-150 21 -275 11 -365 -30 l-53
-24 7 22 c3 12 58 164 121 337 125 346 126 349 125 433 -3 200 -215 295 -384
172 -84 -61 -91 -76 -242 -513 -25 -72 -66 -189 -90 -260 -24 -70 -81 -233
-126 -362 -208 -601 -265 -750 -339 -899 -119 -241 -282 -368 -403 -318 -71
30 -91 130 -48 244 12 32 39 108 60 168 22 61 51 144 65 185 263 743 384 1091
391 1120 31 140 14 286 -46 399 -125 234 -464 356 -737 265 -56 -18 -125 -56
-168 -92 -27 -23 -30 -23 -34 -7 -1 10 -19 35 -38 56 -54 58 -155 85 -252 68z"/>
</g>
</svg>
